<mxfile host="Electron" agent="Mozilla/5.0 (Windows NT 10.0; Win64; x64) AppleWebKit/537.36 (KHTML, like Gecko) draw.io/28.0.6 Chrome/138.0.7204.100 Electron/37.2.3 Safari/537.36" version="28.0.6">
  <diagram name="Page-1" id="JiDodF7xe8MTTTp6FoLk">
    <mxGraphModel dx="1750" dy="1373" grid="1" gridSize="10" guides="1" tooltips="1" connect="1" arrows="1" fold="1" page="1" pageScale="1" pageWidth="850" pageHeight="1100" math="0" shadow="0">
      <root>
        <mxCell id="0" />
        <mxCell id="1" parent="0" />
        <mxCell id="l19j6UsTYT9ovF6oovjK-1" value="" style="rounded=0;whiteSpace=wrap;html=1;strokeColor=default;dashed=1;" vertex="1" parent="1">
          <mxGeometry x="-740" y="110" width="120" height="700" as="geometry" />
        </mxCell>
        <mxCell id="l19j6UsTYT9ovF6oovjK-2" value="sources" style="rounded=0;whiteSpace=wrap;html=1;strokeColor=none;fillColor=none;fontSize=24;gradientColor=none;" vertex="1" parent="1">
          <mxGeometry x="-719.64" y="70" width="90" height="30" as="geometry" />
        </mxCell>
        <mxCell id="l19j6UsTYT9ovF6oovjK-3" value="" style="rounded=0;whiteSpace=wrap;html=1;strokeColor=default;dashed=1;" vertex="1" parent="1">
          <mxGeometry x="-590" y="110" width="710" height="700" as="geometry" />
        </mxCell>
        <mxCell id="l19j6UsTYT9ovF6oovjK-4" value="DATA Warehouse" style="text;html=1;align=center;verticalAlign=middle;resizable=0;points=[];autosize=1;strokeColor=none;fillColor=none;fontSize=24;" vertex="1" parent="1">
          <mxGeometry x="-420" y="50" width="210" height="40" as="geometry" />
        </mxCell>
        <mxCell id="l19j6UsTYT9ovF6oovjK-5" value="" style="rounded=0;whiteSpace=wrap;html=1;" vertex="1" parent="1">
          <mxGeometry x="160" y="110" width="330" height="700" as="geometry" />
        </mxCell>
        <mxCell id="l19j6UsTYT9ovF6oovjK-6" value="Consumer" style="text;html=1;align=center;verticalAlign=middle;resizable=0;points=[];autosize=1;strokeColor=none;fillColor=none;fontSize=24;" vertex="1" parent="1">
          <mxGeometry x="260" y="65" width="130" height="40" as="geometry" />
        </mxCell>
        <mxCell id="l19j6UsTYT9ovF6oovjK-8" value="&lt;font style=&quot;color: rgb(0, 0, 0);&quot;&gt;Bronze Layer&lt;/font&gt;" style="rounded=0;whiteSpace=wrap;html=1;fillColor=#ffe6cc;strokeColor=#d79b00;" vertex="1" parent="1">
          <mxGeometry x="-530" y="120" width="120" height="20" as="geometry" />
        </mxCell>
        <mxCell id="l19j6UsTYT9ovF6oovjK-9" value="" style="rounded=0;whiteSpace=wrap;html=1;" vertex="1" parent="1">
          <mxGeometry x="-570" y="150" width="190" height="580" as="geometry" />
        </mxCell>
        <mxCell id="l19j6UsTYT9ovF6oovjK-10" value="&lt;font color=&quot;#000000&quot;&gt;Silver Layer&lt;/font&gt;" style="rounded=0;whiteSpace=wrap;html=1;fillColor=#ffe6cc;strokeColor=#d79b00;" vertex="1" parent="1">
          <mxGeometry x="-315" y="120" width="120" height="20" as="geometry" />
        </mxCell>
        <mxCell id="l19j6UsTYT9ovF6oovjK-11" value="" style="rounded=0;whiteSpace=wrap;html=1;" vertex="1" parent="1">
          <mxGeometry x="-360" y="150" width="210" height="580" as="geometry" />
        </mxCell>
        <mxCell id="l19j6UsTYT9ovF6oovjK-12" style="edgeStyle=orthogonalEdgeStyle;rounded=0;orthogonalLoop=1;jettySize=auto;html=1;exitX=0.5;exitY=1;exitDx=0;exitDy=0;" edge="1" parent="1" source="l19j6UsTYT9ovF6oovjK-10" target="l19j6UsTYT9ovF6oovjK-10">
          <mxGeometry relative="1" as="geometry" />
        </mxCell>
        <mxCell id="l19j6UsTYT9ovF6oovjK-13" value="&lt;font color=&quot;#000000&quot;&gt;Gold Layer&lt;/font&gt;" style="rounded=0;whiteSpace=wrap;html=1;fillColor=#ffe6cc;strokeColor=#d79b00;" vertex="1" parent="1">
          <mxGeometry x="-82.5" y="120" width="135" height="20" as="geometry" />
        </mxCell>
        <mxCell id="l19j6UsTYT9ovF6oovjK-14" value="" style="rounded=0;whiteSpace=wrap;html=1;" vertex="1" parent="1">
          <mxGeometry x="-120" y="150" width="210" height="580" as="geometry" />
        </mxCell>
        <mxCell id="l19j6UsTYT9ovF6oovjK-15" value="CRM" style="image;aspect=fixed;html=1;points=[];align=center;fontSize=12;image=img/lib/azure2/general/Folder_Blank.svg;" vertex="1" parent="1">
          <mxGeometry x="-704.64" y="200" width="49.28" height="40" as="geometry" />
        </mxCell>
        <mxCell id="l19j6UsTYT9ovF6oovjK-16" value="" style="image;aspect=fixed;html=1;points=[];align=center;fontSize=12;image=img/lib/azure2/general/File.svg;" vertex="1" parent="1">
          <mxGeometry x="-672.5" y="220" width="24.35" height="30" as="geometry" />
        </mxCell>
        <mxCell id="l19j6UsTYT9ovF6oovjK-25" value="ERP" style="image;aspect=fixed;html=1;points=[];align=center;fontSize=12;image=img/lib/azure2/general/Folder_Blank.svg;" vertex="1" parent="1">
          <mxGeometry x="-701.13" y="288.5" width="52.98" height="43" as="geometry" />
        </mxCell>
        <mxCell id="l19j6UsTYT9ovF6oovjK-26" value="" style="image;aspect=fixed;html=1;points=[];align=center;fontSize=12;image=img/lib/azure2/general/File.svg;" vertex="1" parent="1">
          <mxGeometry x="-664.64" y="309.5" width="25.16" height="31" as="geometry" />
        </mxCell>
        <mxCell id="l19j6UsTYT9ovF6oovjK-30" value="" style="endArrow=none;html=1;rounded=0;" edge="1" parent="1">
          <mxGeometry width="50" height="50" relative="1" as="geometry">
            <mxPoint x="-629.64" y="360" as="sourcePoint" />
            <mxPoint x="-719.64" y="360" as="targetPoint" />
          </mxGeometry>
        </mxCell>
        <mxCell id="l19j6UsTYT9ovF6oovjK-31" value="&lt;b&gt;Object Type&lt;/b&gt;:CSV File&lt;br&gt;&lt;div style=&quot;&quot;&gt;&lt;span style=&quot;background-color: transparent; color: light-dark(rgb(0, 0, 0), rgb(255, 255, 255));&quot;&gt;&lt;b&gt;Interface&lt;/b&gt;: Files in folder&amp;nbsp;&lt;/span&gt;&lt;/div&gt;" style="text;html=1;align=center;verticalAlign=middle;whiteSpace=wrap;rounded=0;" vertex="1" parent="1">
          <mxGeometry x="-734.64" y="410" width="120" height="50" as="geometry" />
        </mxCell>
        <mxCell id="l19j6UsTYT9ovF6oovjK-32" value="&lt;font style=&quot;font-size: 14px;&quot;&gt;RAW Data&lt;/font&gt;" style="html=1;verticalLabelPosition=bottom;align=center;labelBackgroundColor=#ffffff;verticalAlign=top;strokeWidth=2;strokeColor=#6c8ebf;shadow=0;dashed=0;shape=mxgraph.ios7.icons.data;fillColor=#dae8fc;fontColor=#000000;" vertex="1" parent="1">
          <mxGeometry x="-490" y="243.5" width="40" height="50" as="geometry" />
        </mxCell>
        <mxCell id="l19j6UsTYT9ovF6oovjK-37" value="" style="shape=flexArrow;endArrow=classic;html=1;rounded=0;" edge="1" parent="1">
          <mxGeometry width="50" height="50" relative="1" as="geometry">
            <mxPoint x="-420" y="267.83" as="sourcePoint" />
            <mxPoint x="-330" y="267.83" as="targetPoint" />
          </mxGeometry>
        </mxCell>
        <mxCell id="l19j6UsTYT9ovF6oovjK-38" value="" style="shape=flexArrow;endArrow=classic;html=1;rounded=0;entryX=0.972;entryY=0.634;entryDx=0;entryDy=0;entryPerimeter=0;" edge="1" parent="1">
          <mxGeometry width="50" height="50" relative="1" as="geometry">
            <mxPoint x="-170" y="267.55" as="sourcePoint" />
            <mxPoint x="-93.3599999999999" y="269.4500000000001" as="targetPoint" />
          </mxGeometry>
        </mxCell>
        <mxCell id="l19j6UsTYT9ovF6oovjK-39" value="" style="shape=flexArrow;endArrow=classic;html=1;rounded=0;" edge="1" parent="1">
          <mxGeometry width="50" height="50" relative="1" as="geometry">
            <mxPoint x="80" y="269" as="sourcePoint" />
            <mxPoint x="170" y="269" as="targetPoint" />
          </mxGeometry>
        </mxCell>
        <mxCell id="l19j6UsTYT9ovF6oovjK-40" value="&lt;span style=&quot;font-size: 14px;&quot;&gt;Cleaned, Standardize&lt;/span&gt;&lt;div&gt;&lt;span style=&quot;font-size: 14px;&quot;&gt;Data&lt;/span&gt;&lt;/div&gt;" style="html=1;verticalLabelPosition=bottom;align=center;labelBackgroundColor=#ffffff;verticalAlign=top;strokeWidth=2;strokeColor=#6c8ebf;shadow=0;dashed=0;shape=mxgraph.ios7.icons.data;fillColor=#dae8fc;fontColor=#000000;" vertex="1" parent="1">
          <mxGeometry x="-255" y="243.5" width="40" height="50" as="geometry" />
        </mxCell>
        <mxCell id="l19j6UsTYT9ovF6oovjK-41" value="&lt;span style=&quot;font-size: 14px;&quot;&gt;Business-Ready Data&lt;/span&gt;&lt;div&gt;&lt;span style=&quot;font-size: 14px;&quot;&gt;&lt;br&gt;&lt;/span&gt;&lt;/div&gt;" style="html=1;verticalLabelPosition=bottom;align=center;labelBackgroundColor=#ffffff;verticalAlign=top;strokeWidth=2;strokeColor=#6c8ebf;shadow=0;dashed=0;shape=mxgraph.ios7.icons.data;fillColor=#dae8fc;fontColor=#000000;" vertex="1" parent="1">
          <mxGeometry x="-35" y="243.5" width="40" height="50" as="geometry" />
        </mxCell>
        <mxCell id="l19j6UsTYT9ovF6oovjK-50" value="" style="endArrow=none;html=1;rounded=0;exitX=0.993;exitY=0.361;exitDx=0;exitDy=0;exitPerimeter=0;" edge="1" parent="1">
          <mxGeometry width="50" height="50" relative="1" as="geometry">
            <mxPoint x="-398.1000000000001" y="359.3799999999999" as="sourcePoint" />
            <mxPoint x="-531.91" y="360" as="targetPoint" />
          </mxGeometry>
        </mxCell>
        <mxCell id="l19j6UsTYT9ovF6oovjK-51" value="" style="endArrow=none;html=1;rounded=0;" edge="1" parent="1">
          <mxGeometry width="50" height="50" relative="1" as="geometry">
            <mxPoint x="-190" y="360" as="sourcePoint" />
            <mxPoint x="-280" y="360" as="targetPoint" />
          </mxGeometry>
        </mxCell>
        <mxCell id="l19j6UsTYT9ovF6oovjK-52" value="" style="endArrow=none;html=1;rounded=0;entryX=-0.023;entryY=0.603;entryDx=0;entryDy=0;entryPerimeter=0;" edge="1" parent="1">
          <mxGeometry width="50" height="50" relative="1" as="geometry">
            <mxPoint x="44.23000000000003" y="360" as="sourcePoint" />
            <mxPoint x="-79.22000000000003" y="361.04999999999995" as="targetPoint" />
          </mxGeometry>
        </mxCell>
        <mxCell id="l19j6UsTYT9ovF6oovjK-54" value="&lt;b&gt;Object Type: &lt;/b&gt;Table&lt;br&gt;&lt;div style=&quot;text-align: left;&quot;&gt;&lt;b&gt;&lt;br&gt;&lt;/b&gt;&lt;/div&gt;&lt;div style=&quot;text-align: left;&quot;&gt;&lt;b&gt;Load:&lt;/b&gt;&lt;/div&gt;&lt;div style=&quot;&quot;&gt;&lt;ul&gt;&lt;li style=&quot;text-align: left;&quot;&gt;Batch Processing&lt;/li&gt;&lt;li style=&quot;text-align: left;&quot;&gt;Full Load&lt;/li&gt;&lt;li style=&quot;text-align: left;&quot;&gt;Truncate &amp;amp; Insert&lt;/li&gt;&lt;/ul&gt;&lt;div style=&quot;text-align: left;&quot;&gt;No &lt;b&gt;Transformation&lt;/b&gt;&lt;/div&gt;&lt;div style=&quot;text-align: left;&quot;&gt;&lt;br&gt;&lt;/div&gt;&lt;div style=&quot;text-align: left;&quot;&gt;Data Modelc: None (asis)&lt;/div&gt;&lt;/div&gt;" style="text;html=1;align=center;verticalAlign=middle;whiteSpace=wrap;rounded=0;" vertex="1" parent="1">
          <mxGeometry x="-570" y="360" width="190" height="370" as="geometry" />
        </mxCell>
        <mxCell id="l19j6UsTYT9ovF6oovjK-55" value="&lt;b&gt;Object Type: &lt;/b&gt;Table&lt;br&gt;&lt;div style=&quot;text-align: left;&quot;&gt;&lt;b&gt;&lt;br&gt;&lt;/b&gt;&lt;/div&gt;&lt;div style=&quot;text-align: left;&quot;&gt;&lt;b&gt;Load:&lt;/b&gt;&lt;/div&gt;&lt;div style=&quot;&quot;&gt;&lt;ul&gt;&lt;li style=&quot;text-align: left;&quot;&gt;Batch Processing&lt;/li&gt;&lt;li style=&quot;text-align: left;&quot;&gt;Full Load&lt;/li&gt;&lt;li style=&quot;text-align: left;&quot;&gt;Truncate &amp;amp; Insert&lt;/li&gt;&lt;/ul&gt;&lt;div style=&quot;text-align: left;&quot;&gt;&amp;nbsp;&lt;b&gt;Transformation&lt;/b&gt;&lt;/div&gt;&lt;div style=&quot;text-align: left;&quot;&gt;&lt;ul&gt;&lt;li&gt;Data Integration&lt;/li&gt;&lt;li&gt;Aggregation&lt;/li&gt;&lt;li&gt;Business Logics&lt;/li&gt;&lt;/ul&gt;&lt;/div&gt;&lt;div style=&quot;text-align: left;&quot;&gt;&lt;br&gt;&lt;/div&gt;&lt;div style=&quot;text-align: left;&quot;&gt;Data Modelc: None (asis)&lt;/div&gt;&lt;/div&gt;" style="text;html=1;align=center;verticalAlign=middle;whiteSpace=wrap;rounded=0;" vertex="1" parent="1">
          <mxGeometry x="-360" y="360" width="210" height="370" as="geometry" />
        </mxCell>
        <mxCell id="l19j6UsTYT9ovF6oovjK-58" value="&lt;b&gt;Object Type: &lt;/b&gt;Views&lt;br&gt;&lt;div style=&quot;text-align: left;&quot;&gt;&lt;b&gt;&lt;br&gt;&lt;/b&gt;&lt;/div&gt;&lt;div style=&quot;text-align: left;&quot;&gt;No LOAD&lt;/div&gt;&lt;div style=&quot;text-align: left;&quot;&gt;&lt;br&gt;&lt;/div&gt;&lt;div style=&quot;&quot;&gt;&lt;div style=&quot;text-align: left;&quot;&gt;&amp;nbsp;&lt;b&gt;Transformation&lt;/b&gt;&lt;/div&gt;&lt;div style=&quot;text-align: left;&quot;&gt;&lt;ul&gt;&lt;li&gt;Data Integration&lt;/li&gt;&lt;li&gt;Aggregation&lt;/li&gt;&lt;li&gt;Business Logics&lt;/li&gt;&lt;/ul&gt;&lt;/div&gt;&lt;div style=&quot;text-align: left;&quot;&gt;&lt;br&gt;&lt;/div&gt;&lt;div style=&quot;text-align: left;&quot;&gt;Data Modelc:&amp;nbsp;&lt;/div&gt;&lt;div style=&quot;text-align: left;&quot;&gt;&lt;ul&gt;&lt;li&gt;Star Schema&lt;/li&gt;&lt;li&gt;Flat Table&lt;/li&gt;&lt;li&gt;Aggregated Table&lt;/li&gt;&lt;/ul&gt;&lt;/div&gt;&lt;/div&gt;" style="text;html=1;align=center;verticalAlign=middle;whiteSpace=wrap;rounded=0;" vertex="1" parent="1">
          <mxGeometry x="-120" y="360" width="210" height="370" as="geometry" />
        </mxCell>
        <mxCell id="l19j6UsTYT9ovF6oovjK-59" value="" style="verticalLabelPosition=bottom;sketch=0;aspect=fixed;html=1;verticalAlign=top;strokeColor=none;align=center;outlineConnect=0;shape=mxgraph.citrix.reporting;" vertex="1" parent="1">
          <mxGeometry x="250" y="163.64" width="130" height="145.86" as="geometry" />
        </mxCell>
        <mxCell id="l19j6UsTYT9ovF6oovjK-61" value="BL &amp;amp; Reporting" style="text;html=1;align=center;verticalAlign=middle;whiteSpace=wrap;rounded=0;" vertex="1" parent="1">
          <mxGeometry x="260" y="320" width="130" height="30" as="geometry" />
        </mxCell>
        <mxCell id="l19j6UsTYT9ovF6oovjK-62" value="" style="sketch=0;pointerEvents=1;shadow=0;dashed=0;html=1;strokeColor=none;labelPosition=center;verticalLabelPosition=bottom;verticalAlign=top;align=center;fillColor=#505050;shape=mxgraph.mscae.oms.log_search" vertex="1" parent="1">
          <mxGeometry x="240" y="390" width="140" height="130" as="geometry" />
        </mxCell>
        <mxCell id="l19j6UsTYT9ovF6oovjK-64" value="Ad-Hoc&lt;div&gt;SQL Queries&lt;/div&gt;" style="text;html=1;align=center;verticalAlign=middle;whiteSpace=wrap;rounded=0;" vertex="1" parent="1">
          <mxGeometry x="242.5" y="520" width="165" height="30" as="geometry" />
        </mxCell>
        <mxCell id="l19j6UsTYT9ovF6oovjK-66" value="" style="points=[];aspect=fixed;html=1;align=center;shadow=0;dashed=0;fillColor=#FF6A00;strokeColor=none;shape=mxgraph.alibaba_cloud.machine_learning;" vertex="1" parent="1">
          <mxGeometry x="275.3" y="600" width="99.4" height="100" as="geometry" />
        </mxCell>
        <mxCell id="l19j6UsTYT9ovF6oovjK-67" value="Machine Learning" style="text;html=1;align=center;verticalAlign=middle;whiteSpace=wrap;rounded=0;" vertex="1" parent="1">
          <mxGeometry x="250" y="710" width="150" height="30" as="geometry" />
        </mxCell>
      </root>
    </mxGraphModel>
  </diagram>
</mxfile>
